<?xml version="1.0" encoding="utf-8"?>
<!-- Generator: Adobe Illustrator 19.0.0, SVG Export Plug-In . SVG Version: 6.00 Build 0)  -->
<svg version="1.1" id="Слой_1" xmlns="http://www.w3.org/2000/svg" xmlns:xlink="http://www.w3.org/1999/xlink" x="0px" y="0px"
	 width="63.75px" height="52.167px" viewBox="0 0 63.75 52.167" enable-background="new 0 0 63.75 52.167" xml:space="preserve">
<g>
	<path stroke="#000000" stroke-width="0.75" stroke-miterlimit="10" d="M62.375,5.792h-56c-0.552,0-1,0.447-1,1v44
		c0,0.553,0.448,1,1,1h56c0.552,0,1-0.447,1-1v-44C63.375,6.239,62.927,5.792,62.375,5.792z M61.375,49.792h-54v-42h54V49.792z"/>
	<path stroke="#000000" stroke-width="0.75" stroke-miterlimit="10" d="M21.375,27.93c3.071,0,5.569-2.498,5.569-5.568
		c0-3.072-2.498-5.57-5.569-5.57s-5.569,2.498-5.569,5.569S18.304,27.93,21.375,27.93z M21.375,18.792
		c1.968,0,3.569,1.602,3.569,3.569s-1.601,3.569-3.569,3.569s-3.569-1.601-3.569-3.568S19.407,18.792,21.375,18.792z"/>
	<path stroke="#000000" stroke-width="0.75" stroke-miterlimit="10" d="M12.375,45.792c0.234,0,0.47-0.082,0.66-0.249l16.313-14.362
		L39.65,41.482c0.391,0.391,1.023,0.391,1.414,0s0.391-1.023,0-1.414l-4.807-4.807l9.181-10.054L56.699,35.53
		c0.407,0.373,1.04,0.345,1.413-0.062c0.373-0.407,0.346-1.04-0.062-1.413l-12-11c-0.196-0.179-0.457-0.268-0.72-0.262
		c-0.265,0.012-0.515,0.129-0.694,0.325l-9.794,10.727l-4.743-4.743c-0.374-0.373-0.972-0.392-1.368-0.044L11.714,44.041
		c-0.415,0.365-0.455,0.997-0.09,1.412C11.822,45.678,12.098,45.792,12.375,45.792z"/>
</g>
<path stroke="#000000" stroke-width="0.75" stroke-miterlimit="10" d="M4.056,44.375H2.375v-42h54v2.208h2V1.375
	c0-0.553-0.448-1-1-1h-56c-0.552,0-1,0.447-1,1v44c0,0.553,0.448,1,1,1h2.681V44.375z"/>
</svg>
