<?xml version="1.0" encoding="utf-8"?>
<!-- Generator: Adobe Illustrator 19.0.0, SVG Export Plug-In . SVG Version: 6.00 Build 0)  -->
<svg version="1.1" id="Слой_1" xmlns="http://www.w3.org/2000/svg" xmlns:xlink="http://www.w3.org/1999/xlink" x="0px" y="0px"
	 width="58.75px" height="46.75px" viewBox="0 0 58.75 46.75" enable-background="new 0 0 58.75 46.75" xml:space="preserve">
<path stroke="#000000" stroke-width="0.75" stroke-miterlimit="10" d="M57.375,0.375h-10h-36h-10c-0.552,0-1,0.447-1,1v11v11v11v11
	c0,0.553,0.448,1,1,1h10h36h10c0.552,0,1-0.447,1-1v-11v-11v-11v-11C58.375,0.822,57.927,0.375,57.375,0.375z M10.375,22.375h-8v-9
	h8V22.375z M2.375,24.375h8v9h-8V24.375z M12.375,34.375v-11v-11v-10h34v10v11v11v10h-34V34.375z M56.375,22.375h-8v-9h8V22.375z
	 M48.375,24.375h8v9h-8V24.375z M56.375,2.375v9h-8v-9H56.375z M2.375,2.375h8v9h-8V2.375z M2.375,44.375v-9h8v9H2.375z
	 M56.375,44.375h-8v-9h8V44.375z"/>
<path stroke="#000000" stroke-width="0.75" stroke-miterlimit="10" d="M27.813,31.362c-3.853,0-6.987-3.134-6.987-6.987
	c0-3.853,3.134-6.987,6.987-6.987c2.673,0,5.147,1.558,6.303,3.97l-1.804,0.864c-0.825-1.722-2.592-2.834-4.5-2.834
	c-2.75,0-4.987,2.237-4.987,4.987c0,2.75,2.237,4.987,4.987,4.987c1.841,0,3.526-1.009,4.397-2.632l1.762,0.946
	C32.751,29.949,30.391,31.362,27.813,31.362z"/>
<path stroke="#000000" stroke-width="0.75" stroke-miterlimit="10" d="M35.04,23.163c-0.695,0-1.471-0.201-2.321-0.604l0.856-1.808
	c0.875,0.415,1.577,0.518,1.974,0.292c0.48-0.273,0.58-1.026,0.581-1.034L36.125,0.479h2v19.625
	c-0.021,0.276-0.212,1.896-1.587,2.678C36.091,23.036,35.591,23.163,35.04,23.163z"/>
<path stroke="#000000" stroke-width="0.75" stroke-miterlimit="10" d="M38.125,45.979h-2V28.951
	c-0.026-0.154-0.156-0.774-0.583-1.012c-0.399-0.222-1.097-0.116-1.967,0.296l-0.856-1.808c1.525-0.722,2.811-0.798,3.819-0.224
	c1.375,0.782,1.566,2.402,1.583,2.584L38.125,45.979z"/>
</svg>
